<svg width="60" height="16" viewBox="0 0 60 16" fill="none" xmlns="http://www.w3.org/2000/svg">
<g id="Logo">
<path id="Vector" d="M22.4448 3.95636H19.1289C18.902 3.95636 18.7091 4.12121 18.6737 4.34521L17.3326 12.848C17.3059 13.0158 17.4359 13.167 17.606 13.167H19.1891C19.416 13.167 19.6089 13.0022 19.6443 12.7777L20.006 10.4844C20.0409 10.2599 20.2344 10.095 20.4608 10.095H21.5105C23.6948 10.095 24.9554 9.03806 25.2846 6.94351C25.4329 6.02715 25.2909 5.30715 24.8618 4.80291C24.3905 4.24921 23.5546 3.95636 22.4448 3.95636ZM22.8274 7.06181C22.646 8.25163 21.7369 8.25163 20.8579 8.25163H20.3576L20.7086 6.02957C20.7294 5.89527 20.8458 5.79636 20.9816 5.79636H21.2109C21.8097 5.79636 22.3745 5.79636 22.6664 6.13769C22.8405 6.34133 22.8938 6.64387 22.8274 7.06181Z" fill="#253B80"/>
<path id="Vector_2" d="M32.3565 7.02354H30.7686C30.6333 7.02354 30.5165 7.12245 30.4956 7.25675L30.4253 7.70087L30.3143 7.5399C29.9705 7.04099 29.204 6.87421 28.4389 6.87421C26.6842 6.87421 25.1856 8.20318 24.8937 10.0674C24.7419 10.9974 24.9577 11.8866 25.4852 12.5067C25.9691 13.0769 26.6614 13.3144 27.4852 13.3144C28.899 13.3144 29.683 12.4054 29.683 12.4054L29.6122 12.8466C29.5856 13.0153 29.7155 13.1666 29.8847 13.1666H31.315C31.5424 13.1666 31.7344 13.0017 31.7703 12.7772L32.6285 7.34257C32.6556 7.1753 32.5262 7.02354 32.3565 7.02354ZM30.1431 10.114C29.9899 11.0211 29.2699 11.6301 28.3516 11.6301C27.8905 11.6301 27.5221 11.4822 27.2854 11.202C27.0508 10.9237 26.9616 10.5275 27.0362 10.0863C27.1793 9.18693 27.9114 8.55808 28.8156 8.55808C29.2665 8.55808 29.6331 8.7079 29.8745 8.99057C30.1165 9.27615 30.2125 9.67469 30.1431 10.114Z" fill="#253B80"/>
<path id="Vector_3" d="M40.8132 7.02356H39.2175C39.0653 7.02356 38.9222 7.0992 38.8359 7.22574L36.6352 10.4674L35.7024 7.35229C35.6437 7.15738 35.4638 7.02356 35.2602 7.02356H33.6922C33.5016 7.02356 33.3693 7.20974 33.4299 7.38914L35.1875 12.547L33.5351 14.8796C33.4052 15.0633 33.5361 15.3159 33.7606 15.3159H35.3542C35.5055 15.3159 35.6471 15.2422 35.7329 15.1181L41.0401 7.4575C41.1671 7.27423 41.0367 7.02356 40.8132 7.02356Z" fill="#253B80"/>
<path id="Vector_4" d="M46.0962 3.95636H42.7798C42.5534 3.95636 42.3604 4.12121 42.325 4.34521L40.984 12.848C40.9573 13.0158 41.0872 13.167 41.2564 13.167H42.9583C43.1163 13.167 43.2516 13.0516 43.2763 12.8945L43.6569 10.4844C43.6918 10.2599 43.8853 10.095 44.1117 10.095H45.1609C47.3456 10.095 48.6058 9.03806 48.9355 6.94351C49.0843 6.02715 48.9413 5.30715 48.5122 4.80291C48.0414 4.24921 47.206 3.95636 46.0962 3.95636ZM46.4787 7.06181C46.2979 8.25163 45.3888 8.25163 44.5093 8.25163H44.0094L44.3609 6.02957C44.3818 5.89527 44.4972 5.79636 44.6334 5.79636H44.8627C45.461 5.79636 46.0264 5.79636 46.3183 6.13769C46.4923 6.34133 46.5452 6.64387 46.4787 7.06181Z" fill="#179BD7"/>
<path id="Vector_5" d="M56.0077 7.02354H54.4208C54.2846 7.02354 54.1687 7.12245 54.1483 7.25675L54.078 7.70087L53.9665 7.5399C53.6228 7.04099 52.8567 6.87421 52.0916 6.87421C50.3369 6.87421 48.8388 8.20318 48.5469 10.0674C48.3956 10.9974 48.6104 11.8866 49.1379 12.5067C49.6228 13.0769 50.3142 13.3144 51.1379 13.3144C52.5517 13.3144 53.3357 12.4054 53.3357 12.4054L53.2649 12.8466C53.2383 13.0153 53.3682 13.1666 53.5384 13.1666H54.9682C55.1946 13.1666 55.3876 13.0017 55.423 12.7772L56.2817 7.34257C56.3078 7.1753 56.1779 7.02354 56.0077 7.02354ZM53.7944 10.114C53.6422 11.0211 52.9212 11.6301 52.0029 11.6301C51.5428 11.6301 51.1733 11.4822 50.9367 11.202C50.702 10.9237 50.6138 10.5275 50.6875 10.0863C50.8315 9.18693 51.5626 8.55808 52.4669 8.55808C52.9178 8.55808 53.2843 8.7079 53.5258 8.99057C53.7687 9.27615 53.8647 9.67469 53.7944 10.114Z" fill="#179BD7"/>
<path id="Vector_6" d="M57.8796 4.18963L56.5186 12.8481C56.492 13.0158 56.6219 13.1671 56.7911 13.1671H58.1593C58.3867 13.1671 58.5797 13.0022 58.6146 12.7778L59.9567 4.27545C59.9833 4.10769 59.8534 3.95593 59.6842 3.95593H58.1521C58.0168 3.95642 57.9004 4.05533 57.8796 4.18963Z" fill="#179BD7"/>
<path id="Vector_7" d="M3.5622 14.8194L3.81577 13.2087L3.25092 13.1956H0.553711L2.42814 1.31054C2.43395 1.27466 2.45286 1.24121 2.4805 1.21745C2.50814 1.19369 2.54353 1.1806 2.58038 1.1806H7.12826C8.63807 1.1806 9.68001 1.49478 10.224 2.11491C10.479 2.40582 10.6415 2.70982 10.72 3.04436C10.8024 3.39539 10.8039 3.81478 10.7234 4.3263L10.7176 4.36363V4.69139L10.9726 4.83588C11.1874 4.94981 11.3581 5.08024 11.489 5.22957C11.7072 5.4783 11.8483 5.79442 11.9079 6.16921C11.9695 6.55466 11.9491 7.01333 11.8483 7.5326C11.7319 8.12994 11.5438 8.65018 11.2897 9.07588C11.056 9.46812 10.7583 9.79345 10.4049 10.0456C10.0674 10.2851 9.66644 10.4669 9.2131 10.5833C8.77383 10.6977 8.27298 10.7554 7.72365 10.7554H7.36971C7.11662 10.7554 6.8708 10.8465 6.67783 11.0099C6.48438 11.1767 6.35638 11.4046 6.3171 11.6538L6.29044 11.7988L5.84244 14.6376L5.82207 14.7418C5.81674 14.7748 5.80753 14.7913 5.79395 14.8024C5.78183 14.8126 5.76438 14.8194 5.74741 14.8194H3.5622Z" fill="#253B80"/>
<path id="Vector_8" d="M11.2144 4.40149C11.2008 4.48828 11.1853 4.577 11.1679 4.66816C10.5681 7.74743 8.51624 8.81119 5.89564 8.81119H4.56133C4.24085 8.81119 3.97079 9.04391 3.92085 9.36003L3.2377 13.6926L3.04424 14.9208C3.01176 15.1283 3.17176 15.3154 3.38121 15.3154H5.74776C6.028 15.3154 6.26606 15.1118 6.31018 14.8354L6.33345 14.7152L6.77903 11.8875L6.80764 11.7324C6.85127 11.4551 7.08982 11.2514 7.37006 11.2514H7.724C10.0168 11.2514 11.8118 10.3205 12.3364 7.6267C12.5555 6.50137 12.4421 5.56173 11.8622 4.90088C11.6867 4.70161 11.469 4.53628 11.2144 4.40149Z" fill="#179BD7"/>
<path id="Vector_9" d="M10.5871 4.15131C10.4954 4.12464 10.4009 4.1004 10.3039 4.07858C10.2065 4.05725 10.1066 4.03834 10.0038 4.02185C9.64405 3.96367 9.24987 3.93604 8.82757 3.93604H5.26296C5.1752 3.93604 5.09181 3.95591 5.01714 3.99179C4.85278 4.07082 4.7306 4.22646 4.70102 4.417L3.94272 9.21991L3.9209 9.36003C3.97084 9.04391 4.2409 8.81119 4.56138 8.81119H5.89569C8.51629 8.81119 10.5682 7.74694 11.1679 4.66816C11.1859 4.577 11.2009 4.48828 11.2145 4.40149C11.0627 4.321 10.8984 4.25216 10.7214 4.19349C10.6777 4.17894 10.6327 4.16488 10.5871 4.15131Z" fill="#222D65"/>
<path id="Vector_10" d="M4.70088 4.41699C4.73045 4.22645 4.85264 4.07081 5.017 3.99226C5.09215 3.95639 5.17506 3.93651 5.26282 3.93651H8.82742C9.24973 3.93651 9.64391 3.96414 10.0037 4.02233C10.1065 4.03881 10.2063 4.05772 10.3038 4.07905C10.4008 4.10087 10.4953 4.12511 10.5869 4.15178C10.6325 4.16536 10.6776 4.17942 10.7217 4.19348C10.8987 4.25214 11.0631 4.32148 11.2148 4.40148C11.3932 3.26354 11.2134 2.48875 10.5981 1.78717C9.91979 1.01481 8.69554 0.684143 7.129 0.684143H2.58112C2.26112 0.684143 1.98815 0.91687 1.9387 1.23348L0.0443938 13.2408C0.00706052 13.4783 0.190333 13.6926 0.429848 13.6926H3.23761L3.94258 9.2199L4.70088 4.41699Z" fill="#253B80"/>
</g>
</svg>
